<svg height="512" viewBox="0 0 128 128" width="512" xmlns="http://www.w3.org/2000/svg" fill="red"><path d="m98.974 108.912-.817-7.112-.957-8.377-1.5-13.1-1.993-17.273-1.929-16.8-1.348-11.75-1.172-10.2-.777-6.758a6.746 6.746 0 0 0 -6.7-5.979h-2.781v-4.816a6.758 6.758 0 0 0 -6.75-6.747h-16.5a6.758 6.758 0 0 0 -6.75 6.747v4.816h-2.776a6.747 6.747 0 0 0 -6.706 5.979l-.776 6.758-1.871 16.3-1.388 12.08-1.191 10.37-1.158 10.085-1.463 12.738-1.829 15.927-.816 7.112a6.751 6.751 0 0 0 6.706 7.52h2.112v4.815a6.758 6.758 0 0 0 6.75 6.75h38.812a6.758 6.758 0 0 0 6.75-6.75v-4.815h2.112a6.751 6.751 0 0 0 6.706-7.52zm-58.374-70.122 1.44-12.54h43.919l.8 6.924-16.64 2.026zm-5.253 45.756 1.064-9.261 12.2 1.484 43.76 5.325 1.094 9.523-34.259-4.168zm30.358-9.223-28.895-3.516.781-6.807h52.817l1.552 13.518zm12.927-37.635 8.521-1.037.95 8.275-48.89 5.948.977-8.508zm-40.639 23.812.81-7.049 31.708-3.859 17.989-2.192 1.5 13.1zm-3.045 26.523 13.552 1.65 45.373 5.52.58 5.057h-60.91zm17.552-81.276a3.254 3.254 0 0 1 3.25-3.247h16.5a3.254 3.254 0 0 1 3.25 3.25v4.816h-23zm-9.5 11.195a3.249 3.249 0 0 1 3.229-2.879h35.547a3.249 3.249 0 0 1 3.229 2.879l.552 4.808h-43.114zm43.656 103.305a3.254 3.254 0 0 1 -3.25 3.25h-38.812a3.254 3.254 0 0 1 -3.25-3.25v-4.815h45.312zm8.037-9.4a3.212 3.212 0 0 1 -2.425 1.087h-56.536a3.25 3.25 0 0 1 -3.229-3.621l.639-5.561h61.716l.639 5.561a3.216 3.216 0 0 1 -.804 2.532z"/></svg>